  0
SECTION
  2
HEADER
  9
$ACADVER
  1
AC1009
  9
$INSBASE
 10
0.0
 20
0.0
 30
0.0
  9
$EXTMIN
 10
143.98002158874459
 20
203.5536333991252
 30
0.0
  9
$EXTMAX
 10
241.87287704690809
 20
218.55363339912509
 30
0.0
  9
$LIMMIN
 10
0.0
 20
0.0
  9
$LIMMAX
 10
420.0
 20
297.0
  9
$ORTHOMODE
 70
     0
  9
$REGENMODE
 70
     1
  9
$FILLMODE
 70
     1
  9
$QTEXTMODE
 70
     0
  9
$MIRRTEXT
 70
     0
  9
$DRAGMODE
 70
     2
  9
$LTSCALE
 40
1.0
  9
$OSMODE
 70
    37
  9
$ATTMODE
 70
     1
  9
$TEXTSIZE
 40
2.5
  9
$TRACEWID
 40
1.0
  9
$TEXTSTYLE
  7
STANDARD
  9
$CLAYER
  8
0
  9
$CELTYPE
  6
BYLAYER
  9
$CECOLOR
 62
   256
  9
$DIMSCALE
 40
1.0
  9
$DIMASZ
 40
2.5
  9
$DIMEXO
 40
0.625
  9
$DIMDLI
 40
3.75
  9
$DIMRND
 40
0.0
  9
$DIMDLE
 40
0.0
  9
$DIMEXE
 40
1.25
  9
$DIMTP
 40
0.0
  9
$DIMTM
 40
0.0
  9
$DIMTXT
 40
2.5
  9
$DIMCEN
 40
2.5
  9
$DIMTSZ
 40
0.0
  9
$DIMTOL
 70
     0
  9
$DIMLIM
 70
     0
  9
$DIMTIH
 70
     0
  9
$DIMTOH
 70
     0
  9
$DIMSE1
 70
     0
  9
$DIMSE2
 70
     0
  9
$DIMTAD
 70
     1
  9
$DIMZIN
 70
     8
  9
$DIMBLK
  1

  9
$DIMASO
 70
     1
  9
$DIMSHO
 70
     1
  9
$DIMPOST
  1

  9
$DIMAPOST
  1

  9
$DIMALT
 70
     0
  9
$DIMALTD
 70
     3
  9
$DIMALTF
 40
0.03937007874016
  9
$DIMLFAC
 40
1.0
  9
$DIMTOFL
 70
     1
  9
$DIMTVP
 40
0.0
  9
$DIMTIX
 70
     0
  9
$DIMSOXD
 70
     0
  9
$DIMSAH
 70
     0
  9
$DIMBLK1
  1

  9
$DIMBLK2
  1

  9
$DIMSTYLE
  2
ISO-25
  9
$DIMCLRD
 70
     0
  9
$DIMCLRE
 70
     0
  9
$DIMCLRT
 70
     0
  9
$DIMTFAC
 40
1.0
  9
$DIMGAP
 40
0.625
  9
$LUNITS
 70
     2
  9
$LUPREC
 70
     4
  9
$SKETCHINC
 40
1.0
  9
$FILLETRAD
 40
0.0
  9
$AUNITS
 70
     0
  9
$AUPREC
 70
     0
  9
$MENU
  1
.
  9
$ELEVATION
 40
0.0
  9
$PELEVATION
 40
0.0
  9
$THICKNESS
 40
0.0
  9
$LIMCHECK
 70
     0
  9
$BLIPMODE
 70
     0
  9
$CHAMFERA
 40
0.0
  9
$CHAMFERB
 40
0.0
  9
$SKPOLY
 70
     0
  9
$TDCREATE
 40
2459401.756376632
  9
$TDUPDATE
 40
2459401.8135721181
  9
$TDINDWG
 40
0.0212933218
  9
$TDUSRTIMER
 40
0.0212930556
  9
$USRTIMER
 70
     1
  9
$ANGBASE
 50
0.0
  9
$ANGDIR
 70
     0
  9
$PDMODE
 70
     0
  9
$PDSIZE
 40
0.0
  9
$PLINEWID
 40
0.0
  9
$COORDS
 70
     1
  9
$SPLFRAME
 70
     0
  9
$SPLINETYPE
 70
     6
  9
$SPLINESEGS
 70
     8
  9
$ATTDIA
 70
     1
  9
$ATTREQ
 70
     1
  9
$HANDLING
 70
     1
  9
$HANDSEED
  5
349
  9
$SURFTAB1
 70
     6
  9
$SURFTAB2
 70
     6
  9
$SURFTYPE
 70
     6
  9
$SURFU
 70
     6
  9
$SURFV
 70
     6
  9
$UCSNAME
  2

  9
$UCSORG
 10
0.0
 20
0.0
 30
0.0
  9
$UCSXDIR
 10
1.0
 20
0.0
 30
0.0
  9
$UCSYDIR
 10
0.0
 20
1.0
 30
0.0
  9
$PUCSNAME
  2

  9
$PUCSORG
 10
0.0
 20
0.0
 30
0.0
  9
$PUCSXDIR
 10
1.0
 20
0.0
 30
0.0
  9
$PUCSYDIR
 10
0.0
 20
1.0
 30
0.0
  9
$USERI1
 70
     0
  9
$USERI2
 70
     0
  9
$USERI3
 70
     0
  9
$USERI4
 70
     0
  9
$USERI5
 70
     0
  9
$USERR1
 40
0.0
  9
$USERR2
 40
0.0
  9
$USERR3
 40
0.0
  9
$USERR4
 40
0.0
  9
$USERR5
 40
0.0
  9
$WORLDVIEW
 70
     1
  9
$SHADEDGE
 70
     3
  9
$SHADEDIF
 70
    70
  9
$TILEMODE
 70
     1
  9
$MAXACTVP
 70
    64
  9
$PLIMCHECK
 70
     0
  9
$PEXTMIN
 10
1.0000000000000000E+020
 20
1.0000000000000000E+020
 30
1.0000000000000000E+020
  9
$PEXTMAX
 10
-1.0000000000000000E+020
 20
-1.0000000000000000E+020
 30
-1.0000000000000000E+020
  9
$PLIMMIN
 10
0.0
 20
0.0
  9
$PLIMMAX
 10
420.0
 20
297.0
  9
$UNITMODE
 70
     0
  9
$VISRETAIN
 70
     1
  9
$PLINEGEN
 70
     0
  9
$PSLTSCALE
 70
     1
  0
ENDSEC
  0
SECTION
  2
TABLES
  0
TABLE
  2
VPORT
 70
     1
  0
VPORT
  2
*ACTIVE
 70
     0
 10
0.0
 20
0.0
 11
1.0
 21
1.0
 12
151.5776526901362
 22
212.88364281128349
 13
0.0
 23
0.0
 14
10.0
 24
10.0
 15
10.0
 25
10.0
 16
0.0
 26
0.0
 36
1.0
 17
0.0
 27
0.0
 37
0.0
 40
21.244534570498558
 41
2.2927120669056151
 42
50.0
 43
0.0
 44
0.0
 50
0.0
 51
0.0
 71
     0
 72
  1000
 73
     1
 74
     3
 75
     0
 76
     0
 77
     0
 78
     0
  0
ENDTAB
  0
TABLE
  2
LTYPE
 70
     3
  0
LTYPE
  2
CONTINUOUS
 70
     0
  3
Solid line
 72
    65
 73
     0
 40
0.0
  0
ENDTAB
  0
TABLE
  2
LAYER
 70
     3
  0
LAYER
  2
0
 70
     0
 62
     7
  6
CONTINUOUS
  0
LAYER
  2
ADSK_CONSTRAINTS
 70
     0
 62
     7
  6
CONTINUOUS
  0
LAYER
  2
DEFPOINTS
 70
     0
 62
     7
  6
CONTINUOUS
  0
ENDTAB
  0
TABLE
  2
STYLE
 70
     4
  0
STYLE
  2
STANDARD
 70
     0
 40
0.0
 41
1.0
 50
0.0
 71
     0
 42
2.5
  3
txt
  4

  0
STYLE
  2
ANNOTATIVE
 70
     0
 40
0.0
 41
1.0
 50
0.0
 71
     0
 42
0.2
  3
txt
  4

  0
ENDTAB
  0
TABLE
  2
VIEW
 70
     3
  0
ENDTAB
  0
TABLE
  2
UCS
 70
     0
  0
ENDTAB
  0
TABLE
  2
APPID
 70
    10
  0
APPID
  2
ACAD
 70
     0
  0
APPID
  2
ACADANNOTATIVE
 70
     0
  0
APPID
  2
ACAD_NAV_VCDISPLAY
 70
     0
  0
APPID
  2
ACAD_EXEMPT_FROM_CAD_STANDARDS
 70
     0
  0
APPID
  2
ACAD_DSTYLE_DIMINSPECT
 70
     0
  0
APPID
  2
ACAD_DSTYLE_DIMJAG_POSITION
 70
     0
  0
APPID
  2
ACADANNOMONITORALERTICONDI
 70
     0
  0
APPID
  2
ACDBDYNAMICBLOCKTRUENAME2
 70
     0
  0
APPID
  2
ACAD_MLEADERVER
 70
     0
  0
APPID
  2
ACADANNOMONITORALERTICOND0
 70
     0
  0
ENDTAB
  0
TABLE
  2
DIMSTYLE
 70
     6
  0
DIMSTYLE
  2
STANDARD
 70
     0
  3

  4

  5

  6

  7

 40
1.0
 41
0.18
 42
0.0625
 43
0.38
 44
0.18
 45
0.0
 46
0.0
 47
0.0
 48
0.0
140
0.18
141
0.09
142
0.0
143
25.399999999999999
144
1.0
145
0.0
146
1.0
147
0.09
 71
     0
 72
     0
 73
     1
 74
     1
 75
     0
 76
     0
 77
     0
 78
     0
170
     0
171
     2
172
     0
173
     0
174
     0
175
     0
176
     0
177
     0
178
     0
  0
DIMSTYLE
  2
ANNOTATIVE
 70
     0
  3

  4

  5

  6

  7

 40
1.0
 41
0.18
 42
0.0625
 43
0.38
 44
0.18
 45
0.0
 46
0.0
 47
0.0
 48
0.0
140
0.18
141
0.09
142
0.0
143
25.399999999999999
144
1.0
145
0.0
146
1.0
147
0.09
 71
     0
 72
     0
 73
     1
 74
     1
 75
     0
 76
     0
 77
     0
 78
     0
170
     0
171
     2
172
     0
173
     0
174
     0
175
     0
176
     0
177
     0
178
     0
  0
DIMSTYLE
  2
ISO-25
 70
     0
  3

  4

  5

  6

  7

 40
1.0
 41
2.5
 42
0.625
 43
3.75
 44
1.25
 45
0.0
 46
0.0
 47
0.0
 48
0.0
140
2.5
141
2.5
142
0.0
143
0.03937007874016
144
1.0
145
0.0
146
1.0
147
0.625
 71
     0
 72
     0
 73
     0
 74
     0
 75
     0
 76
     0
 77
     1
 78
     8
170
     0
171
     3
172
     1
173
     0
174
     0
175
     0
176
     0
177
     0
178
     0
  0
ENDTAB
  0
ENDSEC
  0
SECTION
  2
BLOCKS
  0
BLOCK
  8
0
  2
$MODEL_SPACE
 70
     0
 10
0.0
 20
0.0
 30
0.0
  3
$MODEL_SPACE
  1

  0
ENDBLK
  5
1F6
  8
0
  0
BLOCK
 67
     1
  8
0
  2
$PAPER_SPACE
 70
     0
 10
0.0
 20
0.0
 30
0.0
  3
$PAPER_SPACE
  1

  0
ENDBLK
  5
1F2
 67
     1
  8
0
  0
BLOCK
  8
0
  2
_CLOSEDBLANK
 70
     0
 10
0.0
 20
0.0
 30
0.0
  3
_CLOSEDBLANK
  1

  0
LINE
  5
100
  8
0
  6
BYBLOCK
 62
     0
 10
-1.0
 20
0.1666666666666666
 30
0.0
 11
0.0
 21
0.0
 31
0.0
  0
LINE
  5
101
  8
0
  6
BYBLOCK
 62
     0
 10
0.0
 20
0.0
 30
0.0
 11
-1.0
 21
-0.1666666666666666
 31
0.0
  0
LINE
  5
102
  8
0
  6
BYBLOCK
 62
     0
 10
-1.0
 20
0.1666666666666666
 30
0.0
 11
-1.0
 21
-0.1666666666666666
 31
0.0
  0
ENDBLK
  5
104
  8
0
  0
BLOCK
  8
0
  2
*D3
 70
     1
 10
0.0
 20
0.0
 30
0.0
  3
*D3
  1

  0
LINE
  5
279
  8
0
 62
     0
 10
146.93537704690809
 20
218.55363339912509
 30
0.0
 11
156.77253046002249
 21
218.55363339912509
 31
0.0
  0
LINE
  5
27A
  8
0
 62
     0
 10
155.2353770469081
 20
216.55363339912509
 30
0.0
 11
156.77253046002249
 21
216.55363339912509
 31
0.0
  0
LINE
  5
27B
  8
0
 62
     0
 10
156.59253046002249
 20
218.37363339912511
 30
0.0
 11
156.59253046002249
 21
218.04585024429119
 31
0.0
  0
LINE
  5
27C
  8
0
 62
     0
 10
156.59253046002249
 20
216.7336333991251
 30
0.0
 11
156.59253046002249
 21
217.6858502442912
 31
0.0
  0
SOLID
  5
27D
  8
0
 62
     0
 10
156.56253046002249
 20
218.37363339912511
 30
0.0
 11
156.62253046002249
 21
218.37363339912511
 31
0.0
 12
156.59253046002249
 22
218.55363339912509
 32
0.0
 13
156.59253046002249
 23
218.55363339912509
 33
0.0
  0
SOLID
  5
27E
  8
0
 62
     0
 10
156.56253046002249
 20
216.7336333991251
 30
0.0
 11
156.62253046002249
 21
216.7336333991251
 31
0.0
 12
156.59253046002249
 22
216.55363339912509
 32
0.0
 13
156.59253046002249
 23
216.55363339912509
 33
0.0
  0
INSERT
  5
27F
  8
0
  2
*U8
 10
0.0
 20
0.0
 30
0.0
  0
POINT
  5
280
  8
DEFPOINTS
 62
     0
 10
146.87287704690809
 20
218.55363339912509
 30
0.0
  0
POINT
  5
281
  8
DEFPOINTS
 62
     0
 10
155.1728770469081
 20
216.55363339912509
 30
0.0
  0
POINT
  5
282
  8
DEFPOINTS
 62
     0
 10
156.59253046002249
 20
216.55363339912509
 30
0.0
  0
ENDBLK
  5
278
  8
0
  0
BLOCK
  8
0
  2
*D4
 70
     1
 10
0.0
 20
0.0
 30
0.0
  3
*D4
  1

  0
LINE
  5
286
  8
0
 62
     0
 10
146.87287704690809
 20
211.11613339912509
 30
0.0
 11
146.87287704690809
 21
215.6425005428332
 31
0.0
  0
LINE
  5
287
  8
0
 62
     0
 10
155.1728770469081
 20
213.2137123454842
 30
0.0
 11
155.1728770469081
 21
215.6425005428332
 31
0.0
  0
LINE
  5
288
  8
0
 62
     0
 10
147.05287704690809
 20
215.4625005428332
 30
0.0
 11
154.99287704690809
 21
215.4625005428332
 31
0.0
  0
LINE
  5
289
  8
0
 62
     0
 10
155.1728770469081
 20
215.4625005428332
 30
0.0
 11
155.35287704690811
 21
215.4625005428332
 31
0.0
  0
SOLID
  5
28A
  8
0
 62
     0
 10
147.05287704690809
 20
215.49250054283311
 30
0.0
 11
147.05287704690809
 21
215.4325005428332
 31
0.0
 12
146.87287704690809
 22
215.4625005428332
 32
0.0
 13
146.87287704690809
 23
215.4625005428332
 33
0.0
  0
SOLID
  5
28B
  8
0
 62
     0
 10
154.99287704690809
 20
215.49250054283311
 30
0.0
 11
154.99287704690809
 21
215.4325005428332
 31
0.0
 12
155.1728770469081
 22
215.4625005428332
 32
0.0
 13
155.1728770469081
 23
215.4625005428332
 33
0.0
  0
INSERT
  5
28C
  8
0
  2
*U9
 10
0.0
 20
0.0
 30
0.0
  0
POINT
  5
28D
  8
DEFPOINTS
 62
     0
 10
146.87287704690809
 20
211.05363339912509
 30
0.0
  0
POINT
  5
28E
  8
DEFPOINTS
 62
     0
 10
155.1728770469081
 20
213.1512123454842
 30
0.0
  0
POINT
  5
28F
  8
DEFPOINTS
 62
     0
 10
155.1728770469081
 20
215.4625005428332
 30
0.0
  0
ENDBLK
  5
285
  8
0
  0
BLOCK
  8
0
  2
*D6
 70
     1
 10
0.0
 20
0.0
 30
0.0
  3
*D6
  1

  0
ENDBLK
  5
336
  8
0
  0
BLOCK
  8
0
  2
*D7
 70
     1
 10
0.0
 20
0.0
 30
0.0
  3
*D7
  1

  0
ENDBLK
  5
33B
  8
0
  0
BLOCK
  8
0
  2
*U8
 70
     1
 10
0.0
 20
0.0
 30
0.0
  3
*U8
  1

  0
TEXT
  5
33F
  8
0
 62
     0
 10
156.26253046002239
 20
217.77585024429121
 30
0.0
 40
0.18
  1
d2=2
  0
ENDBLK
  5
341
  8
0
  0
BLOCK
  8
0
  2
*U9
 70
     1
 10
0.0
 20
0.0
 30
0.0
  3
*U9
  1

  0
TEXT
  5
343
  8
0
 62
     0
 10
155.44287704690811
 20
215.37250054283319
 30
0.0
 40
0.18
  1
d1=8.3
  0
ENDBLK
  5
345
  8
0
  0
ENDSEC
  0
SECTION
  2
ENTITIES
  0
LINE
  5
96
  8
0
 10
146.87287704690809
 20
218.55363339912509
 30
0.0
 11
146.87287704690809
 21
203.5536333991252
 31
0.0
  0
LINE
  5
97
  8
0
 10
146.87287704690809
 20
203.5536333991252
 30
0.0
 11
241.87287704690809
 21
203.5536333991252
 31
0.0
  0
LINE
  5
98
  8
0
 10
241.87287704690809
 20
203.5536333991252
 30
0.0
 11
241.87287704690809
 21
218.55363339912509
 31
0.0
  0
LINE
  5
99
  8
0
 10
241.87287704690809
 20
218.55363339912509
 30
0.0
 11
146.87287704690809
 21
218.55363339912509
 31
0.0
  0
LINE
  5
9E
  8
0
 10
155.1728770469081
 20
216.55363339912509
 30
0.0
 11
240.2928770469081
 21
216.55363339912509
 31
0.0
  0
LINE
  5
9F
  8
0
 10
240.2928770469081
 20
216.55363339912509
 30
0.0
 11
240.2928770469081
 21
208.1487912918432
 31
0.0
  0
LINE
  5
A0
  8
0
 10
240.2928770469081
 20
208.1487912918432
 30
0.0
 11
165.99287704690809
 21
208.1487912918432
 31
0.0
  0
LINE
  5
A1
  8
0
 10
165.99287704690809
 20
208.1487912918432
 30
0.0
 11
165.99287704690809
 21
209.74879129184319
 31
0.0
  0
LINE
  5
A2
  8
0
 10
165.99287704690809
 20
209.74879129184319
 30
0.0
 11
155.1728770469081
 21
209.74879129184319
 31
0.0
  0
LINE
  5
A3
  8
0
 10
155.1728770469081
 20
209.74879129184319
 30
0.0
 11
155.1728770469081
 21
216.55363339912509
 31
0.0
  0
LINE
  5
213
  8
0
 10
146.87287704690809
 20
206.55363339912509
 30
0.0
 11
153.27287704690809
 21
206.55363339912509
 31
0.0
  0
LINE
  5
214
  8
0
 10
153.27287704690809
 20
206.55363339912509
 30
0.0
 11
153.27287704690809
 21
215.55363339912509
 31
0.0
  0
LINE
  5
215
  8
0
 10
153.27287704690809
 20
215.55363339912509
 30
0.0
 11
146.87287704690809
 21
215.55363339912509
 31
0.0
  0
DIMENSION
  5
22D
  8
ADSK_CONSTRAINTS
  2
*D6
 10
153.27287704690809
 20
210.36160893309511
 30
0.0
 11
153.27287704690809
 21
210.36160893309511
 31
0.0
 70
   128
  1
d1=6.4
 13
146.87287704690809
 23
211.05363339912509
 33
0.0
 14
153.27287704690809
 24
211.05363339912509
 34
0.0
1001
ACAD
1000
DSTYLE
1002
{
1070
   287
1070
     3
1070
   274
1070
     2
1070
   279
1070
     0
1070
   284
1070
     0
1070
   285
1070
     0
1070
   286
1070
     0
1002
}
  0
DIMENSION
  5
23C
  8
ADSK_CONSTRAINTS
  2
*D7
 10
144.37885408457049
 20
215.55363339912509
 30
0.0
 11
144.37885408457049
 21
215.55363339912509
 31
0.0
 70
   128
  1
d2=3
 13
146.87287704690809
 23
218.55363339912509
 33
0.0
 14
150.0728770469081
 24
215.55363339912509
 34
0.0
 50
90.0
1001
ACAD
1000
DSTYLE
1002
{
1070
   287
1070
     3
1070
   274
1070
     2
1070
   279
1070
     0
1070
   284
1070
     0
1070
   285
1070
     0
1070
   286
1070
     0
1002
}
  0
ENDSEC
  0
EOF
