M48
INCH,TZ
T01C.013
%
G90
T01
X32293Y5544
X40157Y25591
X48327Y54724
X77854
X48425Y18504
X52362
X51969Y22835
X75984Y5512
Y14961
Y8268
Y11417
X85039Y2756
X80315
X75984
X63386Y7874
X59968Y7480
X51181Y7874
X64961Y2362
X60236
X56299
X51969
X43307Y6299
Y2362
X38583
X34646
X85827Y55906
X81890
X71654Y16142
X73622Y18504
X76378Y20866
X78740Y23228
X81102Y25984
Y29921
Y33465
Y36614
Y40157
Y43307
Y46850
Y50394
X65354Y15748
X62205
X58661
X55118
X51969Y26378
R03X3543
X65748Y27559
X68504Y29921
X70472Y31890
X72441Y34252
R05Y3150
X64961
Y46457
Y43307
Y40157
X64567Y36220
X61811Y33858
X58661Y33071
X55118
X51969
Y35827
Y39764
Y43307
Y47244
Y50787
X44882Y48031
Y44488
X41732Y48031
X44882Y40551
X39764Y42520
X36220
X32283
X28740Y44882
Y48031
X37795Y16929
X29528Y10236
Y13780
X12598Y56299
X17717
X23228
X29134
X3543
X7874
X368898Y55906
X362205
X355906
X349213
X343701
X371260Y51969
X371654Y47638
R02Y-4331
Y35039
Y30709
Y25984
Y21260
Y16929
X371260Y12205
X345276Y2756
X369685
X363386
X356693
X351181
X371260Y7087
X320472Y55906
X313780
X337795
X331496
X325984
X327559Y2756
X320866
X314567
X338976
X333465
X289370Y55906
X283071
X307480
X300787
X295276
X296457Y2756
X290157
X284646
X307874
X302362
X272047Y55906
X265354
X259055
X252362
X277559
X278346Y2756
X271654
X265354
X258661
X253150
X223622Y55906
X240945
X234646
X229134
X246850
X229921Y2756
X223228
X247244
X240945
X235433
X192520Y55906
X216929
X210630
X203937
X198425
X198819Y2756
X192520
X216929
X210236
X204724
X175591Y55906
X168898
X162598
X186220
X180709
X181102Y2756
X174409
X168110
X187008
X144488Y55906
X138189
X132677
X155906
X150394
X132677Y2756
X150000
X143701
X138189
X161417
X155906
X101969Y55906
X107480
X114173
X120472
X127165
X125984Y2756
X119685
X112992
X107480
X89764Y55906
X96063
X101575Y2756
X95276
X89764
X54232Y54724
X60138
X11811Y2756
X16535
X21654
X26378
X30315
X3543
X7480
X35433Y25302
Y31102
X66043Y54724
X35433Y28202
X71949Y54724
X35433Y34002
M30
