G04 ================== begin FILE IDENTIFICATION RECORD ==================*
G04 Layout Name:  C:/Users/lices/Desktop/IRCamPwr/LAYOUT/IRCamPwr.brd*
G04 Film Name:    TOP*
G04 File Format:  Gerber RS274X*
G04 File Origin:  Cadence Allegro -unreleased*
G04 Origin Date:  Tue Jul  6 17:56:09 2021*
G04 *
G04 Layer:  ETCH/TOP*
G04 Layer:  PIN/TOP*
G04 Layer:  VIA CLASS/TOP*
G04 *
G04 Offset:    (0.0000 0.0000)*
G04 Mirror:    No*
G04 Mode:      Positive*
G04 Rotation:  0*
G04 FullContactRelief:  No*
G04 UndefLineWidth:     0.1000*
G04 ================== end FILE IDENTIFICATION RECORD ====================*
%FSLAX25Y25*MOMM*%
%IR0*IPPOS*OFA0.00000B0.00000*MIA0B0*SFA1.00000B1.00000*%
%ADD16R,1.15X.3*%
%ADD17O,1.125X.4*%
%ADD13R,1.15X.6*%
%ADD10C,.6096*%
%ADD11O,2.2X1.*%
%ADD12O,1.8X1.*%
%ADD15O,1.05X1.35*%
%ADD19C,1.*%
%ADD18O,.52X.465*%
%ADD14O,.465X.52*%
%ADD20C,.3*%
%ADD21C,.6*%
%ADD22C,1.2544*%
G75*
%LPD*%
G75*
G36*
G01X1099880Y1322520D02*
G02X1091470Y1338380I-1J10159D01*
G03X1102720Y1375000I-53976J36620D01*
G01Y1405000D01*
G03X1070780Y1461090I-65220J0D01*
G02X1075960Y1479990I5179J8740D01*
G01X9400000D01*
G02X9479990Y1400000I0J-79990D01*
G01Y100000D01*
G02X9400000Y20010I-79990J0D01*
G01X100000D01*
G02X20010Y100000I0J79990D01*
G01Y279990D01*
X660010D01*
Y467280D01*
X839780D01*
Y374280D01*
G03X817280Y325000I42717J-49280D01*
G01Y295000D01*
G03X947720I65220J0D01*
G01Y325000D01*
G03X925220Y374280I-65217J0D01*
G01Y467280D01*
X1020020D01*
G03X1032500Y469150I-21J42720D01*
G01X1035420Y470040D01*
X1041170Y464290D01*
X1027290Y450410D01*
G03X1014780Y420200I30222J-30210D01*
G01Y392720D01*
X987280D01*
Y227280D01*
X1147280D01*
Y77280D01*
X1242720D01*
Y91890D01*
G02X1259400Y99670I10158J-7D01*
G03X1282480Y91280I23092J27583D01*
G01X1282500D01*
G03X1308390Y102280I0J35968D01*
G01X1334800D01*
G03X1349510Y106510I-7J27718D01*
G01X1350750Y107280D01*
X1370060D01*
X1371240Y106610D01*
G03X1387500Y102280I16266J28388D01*
G01X1460000D01*
G03Y167720I0J32720D01*
G01X1387500D01*
G03X1371240Y163390I6J-32718D01*
G01X1370060Y162720D01*
X1339800D01*
G03X1325090Y158490I7J-27718D01*
G01X1323850Y157720D01*
X1308390D01*
G03X1282500Y168720I-25890J-24968D01*
G01X1282480D01*
G03X1259400Y160330I12J-35973D01*
G02X1242720Y168110I-6522J7787D01*
G01Y227280D01*
X1502720D01*
Y352720D01*
X1132720D01*
Y392720D01*
X1100220D01*
Y402500D01*
X1257710Y559990D01*
G03X1270220Y590200I-30222J30210D01*
G01Y1344080D01*
G03X1290220Y1390000I-42716J45920D01*
G03X1164780I-62720J0D01*
G03X1167230Y1372640I62729J0D01*
G01X1168060Y1369760D01*
X1120820Y1322520D01*
X1099880D01*
G37*
G36*
G01X100000Y1479990D02*
X999040D01*
G02X1004220Y1461090I1J-10160D01*
G03X972280Y1405000I33280J-56090D01*
G01Y1375000D01*
G03X975190Y1355730I65221J-6D01*
G01X976100Y1352800D01*
X960770Y1337480D01*
X959270Y1337170D01*
G03X945150Y1329600I5478J-27172D01*
G01X894150Y1278600D01*
X892470Y1278370D01*
G03X861530Y1242750I5034J-35620D01*
G01Y1237250D01*
G03X933470I35970J0D01*
G01Y1239520D01*
X937860Y1243910D01*
G02X946530Y1240310I3590J-3595D01*
G01Y1237250D01*
G03X1018470I35970J0D01*
G01Y1239520D01*
X1046030Y1267080D01*
X1132300D01*
G03X1151900Y1275200I0J27715D01*
G01X1167440Y1290730D01*
G02X1184780Y1283550I7182J-7183D01*
G01Y906620D01*
X1175480Y903790D01*
G03X1170210Y910210I-35499J-23767D01*
G01X1060210Y1020210D01*
G03X1030000Y1032720I-30210J-30222D01*
G01X660010D01*
Y1220010D01*
X20010D01*
Y1400000D01*
G02X100000Y1479990I79990J0D01*
G37*
G36*
G01X1000000Y380000D02*
X1120000D01*
Y340000D01*
X1490000D01*
Y240000D01*
X1316340D01*
X1315470Y240340D01*
G03X1300000Y243200I-15458J-40342D01*
G03X1284530Y240340I-12J-43202D01*
G01X1283660Y240000D01*
X1230000D01*
Y90000D01*
X1160000D01*
Y240000D01*
X1000000D01*
Y380000D01*
G37*
%LPC*%
G75*
G36*
G01X867870Y112520D02*
X852870D01*
G02X820240Y97630I-32630J28308D01*
G02Y184030I0J43200D01*
G02X853860Y167960I0J-43203D01*
G01X871280D01*
G02X874630Y167760I26J-27722D01*
G01X874930Y167720D01*
X901610D01*
G02X927500Y178720I25890J-24968D01*
G02X963470Y142750I0J-35970D01*
G01Y137250D01*
G02X927500Y101280I-35970J0D01*
G02X901610Y112280I0J35968D01*
G01X871520D01*
G02X868170Y112480I-26J27722D01*
G01X867870Y112520D01*
G37*
G36*
G01X1949780Y717480D02*
Y1333740D01*
G02X1914780Y1390000I27717J56260D01*
G02X2040220I62720J0D01*
G02X2005220Y1333740I-62717J0D01*
G01Y706000D01*
G02X1997100Y686400I-27715J0D01*
G01X1765220Y454520D01*
Y352720D01*
X1782720D01*
Y157280D01*
X1724430D01*
X1720880Y148570D01*
G02X1721060Y148390I-19510J-19690D01*
G01X1740850Y128600D01*
X1742530Y128370D01*
G02X1773470Y92750I-5034J-35620D01*
G01Y87250D01*
G02X1701530I-35970J0D01*
G01Y89520D01*
X1687720Y103320D01*
X1686920Y103700D01*
G02X1681230Y107280I11808J25079D01*
G01X1649940D01*
X1648760Y106610D01*
G02X1632500Y102280I-16266J28388D01*
G01X1560000D01*
G02Y167720I0J32720D01*
G01X1632500D01*
G02X1648760Y163390I-6J-32718D01*
G01X1649940Y162720D01*
X1657280D01*
Y227280D01*
X1517280D01*
Y352720D01*
X1709780D01*
Y466000D01*
G02X1717900Y485600I27715J0D01*
G01X1949780Y717480D01*
G37*
G54D22*
X1827500Y1390000D03*
X1677500D03*
%LPD*%
G75*
G36*
G01X1530000Y340000D02*
X1770000D01*
Y170000D01*
X1670000D01*
Y240000D01*
X1626340D01*
X1625470Y240340D01*
G03X1610000Y243200I-15458J-40342D01*
G03X1594530Y240340I-12J-43202D01*
G01X1593660Y240000D01*
X1530000D01*
Y340000D01*
G37*
G54D10*
X90000Y70000D03*
Y1430000D03*
X190000Y70000D03*
X550000D03*
X420000D03*
X300000D03*
X200000Y1430000D03*
X590000D03*
X450000D03*
X320000D03*
X770000Y70000D03*
X670000D03*
X750000Y350000D03*
Y260000D03*
X960000Y430000D03*
X880000Y60000D03*
X980000D03*
X1100000D03*
Y160000D03*
X820240Y140830D03*
X900000Y863660D03*
Y716340D03*
Y790000D03*
Y642680D03*
X1140000Y1030000D03*
X1020000Y650000D03*
X740000Y1430000D03*
X730000Y1220000D03*
Y1140000D03*
X820000Y1080000D03*
X920000D03*
X1010000D03*
X1060000Y1220000D03*
X1140000Y1130000D03*
Y1220000D03*
X1400000Y400000D03*
X1490000D03*
X1580000D03*
X1660000D03*
X1320000Y60000D03*
X1430000D03*
X1530000D03*
X1650000D03*
X1300000Y200000D03*
X1523180Y190000D03*
X1610000Y200000D03*
X1330000Y470000D03*
X1230000D03*
X1320000Y1010000D03*
Y910000D03*
Y840000D03*
X1400000D03*
X1490000D03*
X1570000Y860000D03*
X1640000Y920000D03*
X1650000Y1020000D03*
X1670000Y700000D03*
X1590000Y670000D03*
X1500000D03*
X1410000D03*
X1320000D03*
Y580000D03*
X1677500Y1390000D03*
X1527500D03*
X1377500D03*
X1320000Y1290000D03*
Y1200000D03*
Y1100000D03*
X1650000D03*
Y1180000D03*
Y1270000D03*
X1227500Y1390000D03*
X1870000Y470000D03*
X1820000Y410000D03*
X1930000Y70000D03*
X2040000D03*
X2160000D03*
X1930000Y290000D03*
Y210000D03*
Y380000D03*
Y140000D03*
X1840000Y1030000D03*
Y950000D03*
Y870000D03*
X1790000Y810000D03*
X1740000Y760000D03*
X2060000Y1020000D03*
Y930000D03*
Y850000D03*
Y760000D03*
Y660000D03*
X2000000Y590000D03*
X1940000Y530000D03*
X1827500Y1390000D03*
X1840000Y1270000D03*
Y1190000D03*
Y1110000D03*
X2060000Y1280000D03*
Y1190000D03*
Y1100000D03*
X2080000Y1420000D03*
X2180000D03*
X1977500Y1390000D03*
X2280000Y70000D03*
X2420000D03*
X2580000D03*
X2730000D03*
X2440000Y1420000D03*
X2280000D03*
X2730000D03*
X2590000D03*
X2870000Y70000D03*
X3040000D03*
X3200000D03*
X3230000Y1420000D03*
X3060000D03*
X2900000D03*
X3510000Y70000D03*
X3650000D03*
X3810000D03*
X3370000D03*
X3820000Y1420000D03*
X3370000D03*
X3510000D03*
X3670000D03*
X3960000Y70000D03*
X4100000D03*
X4270000D03*
X3960000Y1420000D03*
X4130000D03*
X4290000D03*
X4750000Y70000D03*
X4430000D03*
X4600000D03*
X4890000D03*
X4590000Y1420000D03*
X4730000D03*
X4460000D03*
X4890000D03*
X5200000Y70000D03*
X5340000D03*
X5050000D03*
X5040000Y1420000D03*
X5180000D03*
X5350000D03*
X5510000Y70000D03*
X5980000D03*
X5670000D03*
X5840000D03*
X5510000Y1420000D03*
X5820000D03*
X5960000D03*
X5680000D03*
X6120000Y70000D03*
X6280000D03*
X6430000D03*
X6270000Y1420000D03*
X6120000D03*
X6410000D03*
X6570000Y70000D03*
X6740000D03*
X6900000D03*
X7070000D03*
X7050000Y1420000D03*
X6580000D03*
X6740000D03*
X6910000D03*
X7230000Y70000D03*
X7370000D03*
X7530000D03*
X7500000Y1420000D03*
X7640000D03*
X7190000D03*
X7350000D03*
X7680000Y70000D03*
X7820000D03*
X7990000D03*
X8150000D03*
X7810000Y1420000D03*
X7970000D03*
X8140000D03*
X8470000Y70000D03*
X8610000D03*
X8320000D03*
X8280000Y1420000D03*
X8420000D03*
X8580000D03*
X8920000Y70000D03*
X9060000D03*
X9230000D03*
X8770000D03*
X8730000Y1420000D03*
X8870000D03*
X9040000D03*
X9200000D03*
X9430000Y180000D03*
X9390000Y70000D03*
X9430000Y310000D03*
X9440000Y430000D03*
Y540000D03*
Y660000D03*
Y780000D03*
Y890000D03*
Y990000D03*
Y1100000D03*
Y1210000D03*
X9430000Y1320000D03*
X9370000Y1420000D03*
G54D20*
G01X820240Y140830D02*
X820830Y140240D01*
X871280D01*
X871520Y140000D01*
X927500D01*
G01X706000Y825000D02*
X803160D01*
X841820Y863660D01*
X900000D01*
G01X706000Y725000D02*
X891340D01*
X900000Y716340D01*
G01Y863660D02*
X908630D01*
X958180Y814110D01*
Y765890D01*
X908630Y716340D01*
X900000D01*
G01X706000Y775000D02*
X885000D01*
X900000Y790000D01*
G01X706000Y675000D02*
X809500D01*
X841820Y642680D01*
X900000D01*
G01X706000Y875000D02*
X791200D01*
X846200Y930000D01*
X960000D01*
X1020000Y870000D01*
Y650000D01*
G01D02*
X945000Y575000D01*
X706000D01*
G01X897500Y1240000D02*
Y1242750D01*
X964750Y1310000D01*
X972500D01*
X1037500Y1375000D01*
Y1390000D01*
G01X982500Y1240000D02*
Y1242750D01*
X1034550Y1294800D01*
X1132300D01*
X1227500Y1390000D01*
G01X1282500Y130000D02*
X1334800D01*
X1339800Y135000D01*
X1423750D01*
G01X1596250D02*
X1692500D01*
X1698710Y128790D01*
X1701460D01*
X1737500Y92750D01*
Y90000D01*
G01X1977500Y1390000D02*
Y706000D01*
X1737500Y466000D01*
Y310000D01*
G54D11*
X220000Y192500D03*
Y1307500D03*
G54D21*
G01X882500Y510000D02*
Y310000D01*
G01X1227500Y1390000D02*
Y590200D01*
X1057500Y420200D01*
Y310000D01*
G01X706000Y510000D02*
X882500D01*
G01D02*
X1020000D01*
X1140000Y630000D01*
Y880000D01*
X1030000Y990000D01*
X706000D01*
G54D12*
X620000Y192500D03*
Y1307500D03*
G54D13*
X706000Y430000D03*
Y510000D03*
Y990000D03*
Y1070000D03*
G54D14*
X927500Y140000D03*
X1012500D03*
X897500Y1240000D03*
X982500D03*
X1282500Y130000D03*
X1197500D03*
X1737500Y310000D03*
X1822500D03*
X1737500Y200000D03*
X1822500D03*
X1737500Y90000D03*
X1822500D03*
G54D15*
X1057500Y310000D03*
X882500D03*
X1037500Y1390000D03*
X862500D03*
G54D16*
X706000Y575000D03*
Y625000D03*
Y675000D03*
Y725000D03*
Y775000D03*
Y825000D03*
Y875000D03*
Y925000D03*
G54D17*
X1423750Y265000D03*
Y200000D03*
Y135000D03*
X1596250D03*
X1596200Y265000D03*
G54D18*
X1180000Y307500D03*
Y392500D03*
X1280000Y307500D03*
Y392500D03*
G54D19*
X1227500Y1390000D03*
X1377500D03*
X1527500D03*
X1677500D03*
X1977500D03*
X1827500D03*
M02*
